<svg width="28" height="28" viewBox="0 0 28 28" fill="none" xmlns="http://www.w3.org/2000/svg">
<path d="M26 8.37506V19.625C26 19.8887 25.8425 20.1317 25.5885 20.2599L14.3885 25.9086C14.1469 26.0305 13.8531 26.0305 13.6115 25.9086L2.41151 20.2599C2.15755 20.1317 2.00003 19.8887 2.00003 19.625L2 8.37506C2 8.1113 2.15752 7.86828 2.41149 7.74019L13.6115 2.09139C13.8531 1.96954 14.1469 1.96954 14.3885 2.09139L25.5885 7.74019C25.8424 7.86828 26 8.1113 26 8.37506Z" stroke="black" stroke-width="3" stroke-linecap="round" stroke-linejoin="round"/>
<path d="M2.70459 8.30306L13.6115 13.804C13.8531 13.9259 14.1469 13.9259 14.3885 13.804L25.3333 8.28394" stroke="black" stroke-width="3" stroke-linecap="round" stroke-linejoin="round"/>
<path d="M14 24.8941V14" stroke="black" stroke-width="3" stroke-linecap="round" stroke-linejoin="round"/>
</svg>
