<svg width="28" height="28" viewBox="0 0 28 28" fill="none" xmlns="http://www.w3.org/2000/svg">
<path d="M24.7645 13.9761V6.48928C24.7645 6.29871 24.6746 6.11594 24.5145 5.98117L20.0347 2.21047C19.8747 2.0757 19.6576 2 19.4312 2H2.85367C2.3822 2 2 2.32171 2 2.71857V25.2337C2 25.6306 2.3822 25.9522 2.85367 25.9522H11.9595" stroke="black" stroke-width="3" stroke-linecap="round" stroke-linejoin="round"/>
<path d="M7.69116 11.581H19.0734M7.69116 6.79053H13.3823M7.69116 16.3714H11.9595" stroke="black" stroke-width="3" stroke-linecap="round" stroke-linejoin="round"/>
<path d="M21.8537 19.8917L23.2765 18.6941C23.8995 18.1697 24.9097 18.1697 25.5327 18.6941C26.1557 19.2185 26.1557 20.0688 25.5327 20.5933L24.1099 21.7909M21.8537 19.8917L17.598 23.4739C17.3847 23.6534 17.2447 23.8854 17.1983 24.1362L16.853 26.0001L19.0673 25.7096C19.3654 25.6704 19.6408 25.5526 19.8541 25.3731L24.1099 21.7909M21.8537 19.8917L24.1099 21.7909" stroke="black" stroke-width="3" stroke-linecap="round" stroke-linejoin="round"/>
<path d="M19.0734 2V6.07188C19.0734 6.46873 19.4555 6.79045 19.927 6.79045H24.7645" stroke="black" stroke-width="3" stroke-linecap="round" stroke-linejoin="round"/>
</svg>
