<svg width="28" height="28" viewBox="0 0 28 28" fill="none" xmlns="http://www.w3.org/2000/svg">
<path d="M14 2C7.37258 2 2 7.37258 2 14C2 20.6274 7.37258 26 14 26C20.6274 26 26 20.6274 26 14C26 7.37258 20.6274 2 14 2Z" stroke="black" stroke-width="3" stroke-linecap="round" stroke-linejoin="round"/>
<path d="M4.72516 21.6148C4.72516 21.6148 7.39998 18.2 14 18.2C20.6 18.2 23.2749 21.6148 23.2749 21.6148" stroke="black" stroke-width="3" stroke-linecap="round" stroke-linejoin="round"/>
<path d="M14 14C15.9883 14 17.6 12.3883 17.6 10.4C17.6 8.41183 15.9883 6.80005 14 6.80005C12.0117 6.80005 10.4 8.41183 10.4 10.4C10.4 12.3883 12.0117 14 14 14Z" stroke="black" stroke-width="3" stroke-linecap="round" stroke-linejoin="round"/>
</svg>
