<svg width="150" height="150" viewBox="0 0 150 150" fill="none" xmlns="http://www.w3.org/2000/svg">
<g filter="url(#filter0_i_203_169)">
<path d="M93.4502 30H78.4502V24.3001C78.4502 23.1001 77.4002 22.05 76.2002 22.05H52.9502C51.7502 22.05 50.7002 23.1001 50.7002 24.3001V30H35.7002C34.5002 30 33.4502 31.05 33.4502 32.25V112.95C33.4502 118.5 37.9502 123 43.5002 123H85.9502C91.5002 123 96.0002 118.5 96.0002 112.95V32.25C95.7002 31.05 94.6502 30 93.4502 30ZM55.2002 26.5501H73.9502V29.7H55.2002V26.5501ZM82.6502 34.5V37.95H46.5002V34.5H82.6502ZM91.2002 112.95C91.2002 115.95 88.8002 118.5 85.6502 118.5H80.7002L91.2002 108V112.95ZM91.2002 101.55L74.2502 118.5H43.3502C40.3502 118.5 37.8002 115.95 37.8002 112.95V34.5H42.0002V40.2C42.0002 41.4 43.0502 42.45 44.2502 42.45H84.9002C86.1002 42.45 87.1502 41.4 87.1502 40.2V34.5H91.2002V101.55Z" fill="white"/>
<path d="M120.9 30H116.4V21.3C116.4 20.1 115.35 19.05 114.15 19.05H102.45C101.25 19.05 100.2 20.1 100.2 21.3V106.5C100.2 106.8 100.2 106.95 100.35 107.25L105.9 124.5V129.15C105.9 130.35 106.95 131.4 108.15 131.4C109.35 131.4 110.4 130.35 110.4 129.15V124.5L116.1 107.25C116.1 106.95 116.25 106.8 116.25 106.5V34.5H118.5V59.1001C118.5 60.3 119.55 61.3501 120.75 61.3501C121.95 61.3501 123 60.3 123 59.1001V32.5501V32.4V32.25C123.15 31.05 122.1 30 120.9 30ZM108.15 117L105.15 107.85H111.3L108.15 117ZM111.9 103.35H104.7V34.5H111.9V103.35ZM111.9 30H104.7V23.55H111.9V30Z" fill="white"/>
<path d="M77.8503 102.15H52.0503C50.8503 102.15 49.8003 103.2 49.8003 104.4C49.8003 105.6 50.8503 106.65 52.0503 106.65H77.8503C79.0503 106.65 80.1003 105.6 80.1003 104.4C80.1003 103.2 79.0503 102.15 77.8503 102.15Z" fill="white"/>
<path d="M86.25 64.2001C86.1 63.6001 85.8 63.1501 85.35 62.7001L78.75 58.0501C77.7 57.3001 76.35 57.6001 75.6 58.5001L61.8 77.4001L52.5 68.4001C51.6 67.6501 50.25 67.5001 49.5 68.4001L43.5 73.8001C43.05 74.2501 42.75 74.8501 42.75 75.4501C42.75 76.0501 42.9 76.6501 43.35 77.1001L61.05 95.5501C61.5 96.0001 62.1 96.3001 62.7 96.3001H62.85C63.45 96.3001 64.2 95.8501 64.5 95.4001L85.8 66.0001C86.25 65.4001 86.4 64.8001 86.25 64.2001ZM48.3 75.6001L51 73.2001L60.6 82.5001C61.05 82.9501 61.65 83.1001 62.4 83.1001C63 83.1001 63.6 82.6501 64.05 82.2001L78 63.0001L80.85 64.9501L62.55 90.4501L48.3 75.6001Z" fill="white"/>
</g>
<defs>
<filter id="filter0_i_203_169" x="0" y="0" width="150" height="154" filterUnits="userSpaceOnUse" color-interpolation-filters="sRGB">
<feFlood flood-opacity="0" result="BackgroundImageFix"/>
<feBlend mode="normal" in="SourceGraphic" in2="BackgroundImageFix" result="shape"/>
<feColorMatrix in="SourceAlpha" type="matrix" values="0 0 0 0 0 0 0 0 0 0 0 0 0 0 0 0 0 0 127 0" result="hardAlpha"/>
<feOffset dy="4"/>
<feGaussianBlur stdDeviation="2"/>
<feComposite in2="hardAlpha" operator="arithmetic" k2="-1" k3="1"/>
<feColorMatrix type="matrix" values="0 0 0 0 0 0 0 0 0 0 0 0 0 0 0 0 0 0 0.25 0"/>
<feBlend mode="normal" in2="shape" result="effect1_innerShadow_203_169"/>
</filter>
</defs>
</svg>
