<svg width="40" height="40" viewBox="0 0 40 40" fill="none" xmlns="http://www.w3.org/2000/svg">
<g clip-path="url(#clip0_203_85)" filter="url(#filter0_i_203_85)">
<path d="M20 38.75C30.3553 38.75 38.75 30.3553 38.75 20C38.75 9.64466 30.3553 1.25 20 1.25C9.64466 1.25 1.25 9.64466 1.25 20C1.25 30.3553 9.64466 38.75 20 38.75Z" stroke="white" stroke-width="3" stroke-miterlimit="10" stroke-linejoin="round"/>
<path d="M32.5 33.75C32.5 26.8463 26.9037 21.25 20 21.25C13.0963 21.25 7.5 26.8463 7.5 33.75" stroke="white" stroke-width="3" stroke-miterlimit="10" stroke-linejoin="round"/>
<path d="M20 21.25C24.1421 21.25 27.5 17.8921 27.5 13.75C27.5 9.60786 24.1421 6.25 20 6.25C15.8579 6.25 12.5 9.60786 12.5 13.75C12.5 17.8921 15.8579 21.25 20 21.25Z" stroke="white" stroke-width="3" stroke-miterlimit="10" stroke-linejoin="round"/>
</g>
<defs>
<filter id="filter0_i_203_85" x="0" y="0" width="40" height="44" filterUnits="userSpaceOnUse" color-interpolation-filters="sRGB">
<feFlood flood-opacity="0" result="BackgroundImageFix"/>
<feBlend mode="normal" in="SourceGraphic" in2="BackgroundImageFix" result="shape"/>
<feColorMatrix in="SourceAlpha" type="matrix" values="0 0 0 0 0 0 0 0 0 0 0 0 0 0 0 0 0 0 127 0" result="hardAlpha"/>
<feOffset dy="4"/>
<feGaussianBlur stdDeviation="2"/>
<feComposite in2="hardAlpha" operator="arithmetic" k2="-1" k3="1"/>
<feColorMatrix type="matrix" values="0 0 0 0 0 0 0 0 0 0 0 0 0 0 0 0 0 0 0.25 0"/>
<feBlend mode="normal" in2="shape" result="effect1_innerShadow_203_85"/>
</filter>
<clipPath id="clip0_203_85">
<rect width="40" height="40" fill="white"/>
</clipPath>
</defs>
</svg>
