<svg width="135" height="135" viewBox="0 0 135 135" fill="none" xmlns="http://www.w3.org/2000/svg">
<g filter="url(#filter0_i_203_163)">
<path d="M101.779 45.7903L93.8672 17.1394L47.6382 30.1472L55.0182 58.7982L101.779 45.7903Z" fill="white"/>
<path d="M43.2366 76.7025L43.2422 76.7278L50.7994 74.4441L32.5182 3.42847H1.23193V13.4466H23.8669L39.8138 77.7403L43.2366 76.7025Z" fill="white"/>
<path d="M131.726 87.3815L130.781 83.4075L82.5581 96.8231L86.2847 108.517L133.768 94.6856L132.013 87.3028L131.726 87.3815Z" fill="white"/>
<path d="M71.8059 93.0571L75.2372 89.6259L69.0159 83.4018L65.5875 86.8359C63.5934 85.514 61.3659 84.5296 58.9837 83.9109V78.7837H47.9419V83.9109C45.5091 84.5409 43.2309 85.5534 41.2031 86.9174L37.9125 83.624L31.6912 89.8453L35.0381 93.1921C33.7584 95.1496 32.7994 97.3349 32.1947 99.6581H27.0703V110.694H32.1947C32.8134 113.077 33.7978 115.31 35.1225 117.307L31.6912 120.735L37.9125 126.953L41.3437 123.522C43.3434 124.85 45.5794 125.837 47.9672 126.453V131.572H58.9669V126.453C61.3013 125.854 63.4866 124.886 65.4525 123.609L69.0188 127.173L75.24 120.957L71.7272 117.439C73.0997 115.4 74.1178 113.107 74.7422 110.663H79.8609V99.7003H74.7422C74.1263 97.3068 73.1391 95.0624 71.8059 93.0571ZM53.4656 114.227C48.4678 114.227 44.4178 110.177 44.4178 105.176C44.4178 100.181 48.4678 96.1284 53.4656 96.1284C58.4606 96.1284 62.5134 100.178 62.5134 105.176C62.5134 110.177 58.4606 114.227 53.4656 114.227Z" fill="white"/>
<path d="M60.2663 77.7404C71.401 75.7632 77.0794 83.4442 77.0794 83.4442C77.0991 83.4638 77.1188 83.4835 77.1385 83.5032C77.2229 83.5932 77.2904 83.6776 77.3691 83.7648C78.4857 85.1429 79.2929 87.182 79.2929 87.182L79.7626 88.6557L133.771 73.7382L126.037 45.0845L56.7788 64.0688L60.2663 77.7404Z" fill="white"/>
</g>
<defs>
<filter id="filter0_i_203_163" x="0" y="0" width="135" height="139" filterUnits="userSpaceOnUse" color-interpolation-filters="sRGB">
<feFlood flood-opacity="0" result="BackgroundImageFix"/>
<feBlend mode="normal" in="SourceGraphic" in2="BackgroundImageFix" result="shape"/>
<feColorMatrix in="SourceAlpha" type="matrix" values="0 0 0 0 0 0 0 0 0 0 0 0 0 0 0 0 0 0 127 0" result="hardAlpha"/>
<feOffset dy="4"/>
<feGaussianBlur stdDeviation="2"/>
<feComposite in2="hardAlpha" operator="arithmetic" k2="-1" k3="1"/>
<feColorMatrix type="matrix" values="0 0 0 0 0 0 0 0 0 0 0 0 0 0 0 0 0 0 0.25 0"/>
<feBlend mode="normal" in2="shape" result="effect1_innerShadow_203_163"/>
</filter>
</defs>
</svg>
